<?xml version="1.0" encoding="utf-8"?>
<svg version="1.1" id="Layer_1"
xmlns="http://www.w3.org/2000/svg"
xmlns:xlink="http://www.w3.org/1999/xlink"
width="900px" height="200px"
xml:space="preserve">
<g id="PathID_1" transform="matrix(-0.555977, 0.207363, 0.207363, 0.555977, 130.5, 42.75)" opacity="1">
</g>
<g id="PathID_2" transform="matrix(-0.555977, 0.207363, 0.207363, 0.555977, 130.5, 42.75)" opacity="1">
<path style="fill:none;stroke-width:9.9;stroke-linecap:round;stroke-linejoin:round;stroke-miterlimit:3;stroke:#162C61;stroke-opacity:1" d="M19 20.95L-19 -21.05" />
</g>
<g id="PathID_3" transform="matrix(-0.241397, -2.11036e-008, 0, 0.241397, 139.3, 22.45)" opacity="1">
<path style="fill:#162C61;fill-opacity:1" d="M36 -36.1Q51 -21.1 51 0Q51 21.1 36 36Q21.1 51 0 51Q-21.1 51 -36.1 36Q-51 21.1 -51 0Q-51 -21.1 -36.1 -36.1Q-21.1 -51 0 -51Q21.1 -51 36 -36.1" />
</g>
<g id="PathID_4" transform="matrix(-0.241397, -2.11036e-008, 0, 0.241397, 139.3, 22.45)" opacity="1">
</g>
<g id="PathID_5" transform="matrix(4.8802, 0, 0, 4.8802, 186.9, 184.45)" opacity="1">
<path style="fill:#162C61;fill-opacity:1" d="M27.7 -28.25L27.7 0L24.3 0L24.3 -7.1Q24.3 -3.55 21.3 -1.45Q18.35 0.6 14.45 0.6Q9.45 0.6 6.3 -2.55Q3.15 -5.75 3.15 -11.85L3.15 -28.25L6.4 -28.25L6.4 -11.9Q6.4 -7.25 8.7 -4.8Q11 -2.4 15.05 -2.4Q19.3 -2.4 21.8 -5.1Q24.3 -7.85 24.3 -13.3L24.3 -28.25L27.7 -28.25" />
</g>
<g id="PathID_6" transform="matrix(4.8802, 0, 0, 4.8802, 186.9, 184.45)" opacity="1">
</g>
<g id="PathID_7" transform="matrix(4.8802, 0, 0, 4.8802, 339.8, 184.45)" opacity="1">
<path style="fill:#162C61;fill-opacity:1" d="M8.55 -25.2L8.55 -8.15Q8.55 -5.05 9.55 -4.05Q10.55 -3.05 13.25 -3.05L16.65 -3.05L16.65 0L13 0Q9 0 7.1 -1.9Q5.25 -3.8 5.25 -8.15L5.25 -25.2L0.95 -25.2L0.95 -28.25L5.25 -28.25L5.25 -35.15L8.55 -35.15L8.55 -28.25L16.65 -28.25L16.65 -25.2L8.55 -25.2" />
</g>
<g id="PathID_8" transform="matrix(4.8802, 0, 0, 4.8802, 339.8, 184.45)" opacity="1">
</g>
<g id="PathID_9" transform="matrix(4.8802, 0, 0, 4.8802, 427.25, 184.45)" opacity="1">
<path style="fill:#162C61;fill-opacity:1" d="M16.7 -28.6Q20.7 -28.6 23.9 -26.8Q27.1 -25.05 28.9 -21.75Q30.7 -18.5 30.7 -14.15Q30.7 -9.7 28.9 -6.4Q27.1 -3.15 23.9 -1.35Q20.7 0.4 16.7 0.4Q12.75 0.4 9.55 -1.35Q6.4 -3.1 4.55 -6.4Q2.75 -9.7 2.75 -14.15Q2.75 -18.55 4.55 -21.8Q6.4 -25.1 9.55 -26.85Q12.75 -28.6 16.7 -28.6M16.7 -25.6Q13.85 -25.6 11.45 -24.35Q9.05 -23.1 7.55 -20.5Q6.1 -17.95 6.1 -14.15Q6.1 -10.25 7.55 -7.65Q9.05 -5.1 11.45 -3.85Q13.85 -2.65 16.7 -2.65Q19.55 -2.65 21.95 -3.85Q24.35 -5.1 25.85 -7.7Q27.35 -10.3 27.35 -14.15Q27.35 -17.95 25.85 -20.5Q24.4 -23.1 21.95 -24.35Q19.55 -25.6 16.7 -25.6" />
</g>
<g id="PathID_10" transform="matrix(4.8802, 0, 0, 4.8802, 427.25, 184.45)" opacity="1">
</g>
<g id="PathID_11" transform="matrix(4.8802, 0, 0, 4.8802, 588.95, 184.45)" opacity="1">
<path style="fill:#162C61;fill-opacity:1" d="M7.35 -22.2Q7.45 -25.25 10.25 -27Q13.05 -28.8 17.85 -28.8L17.85 -25.35L16.55 -25.35Q12.65 -25.35 10 -23.15Q7.35 -21 7.35 -16.05L7.35 0L4.05 0L4.05 -28.25L7.35 -28.25L7.35 -22.2" />
</g>
<g id="PathID_12" transform="matrix(4.8802, 0, 0, 4.8802, 588.95, 184.45)" opacity="1">
</g>
<g id="PathID_13" transform="matrix(4.5581, 0, 0, 4.5581, 686.7, 183.85)" opacity="1">
<path style="fill:#1B9CFC;fill-opacity:1" d="M16.25 -28.6Q20.9 -28.6 24.1 -26.15Q27.3 -23.7 27.45 -20.1L27.45 -28.25L30.75 -28.25L30.75 0L27.45 0L27.45 -8.1Q27.3 -4.5 24.1 -2.05Q20.9 0.4 16.25 0.4Q12.3 0.4 9.2 -1.35Q6.15 -3.1 4.45 -6.4Q2.75 -9.75 2.75 -14.15Q2.75 -18.5 4.45 -21.8Q6.15 -25.1 9.2 -26.85Q12.3 -28.6 16.25 -28.6M16.75 -25.6Q11.85 -25.6 8.95 -22.5Q6.1 -19.45 6.1 -14.15Q6.1 -8.75 8.95 -5.7Q11.8 -2.65 16.75 -2.65Q19.8 -2.65 22.25 -4.05Q24.7 -5.45 26.05 -8.05Q27.45 -10.7 27.45 -14.15Q27.45 -17.55 26.05 -20.15Q24.7 -22.75 22.25 -24.15Q19.8 -25.6 16.75 -25.6" />
</g>
<g id="PathID_14" transform="matrix(4.5581, 0, 0, 4.5581, 686.7, 183.85)" opacity="1">
</g>
<g id="PathID_15" transform="matrix(4.5581, 0, 0, 4.5581, 850.05, 183.85)" opacity="1">
<path style="fill:#1B9CFC;fill-opacity:1" d="M3.25 -35.95Q3.25 -37 3.9 -37.65Q4.6 -38.3 5.65 -38.3Q6.75 -38.3 7.45 -37.6Q8.15 -36.95 8.15 -35.95Q8.15 -34.9 7.45 -34.2Q6.75 -33.55 5.65 -33.55Q4.55 -33.55 3.9 -34.2Q3.25 -34.9 3.25 -35.95M7.35 -28.25L7.35 0L4.05 0L4.05 -28.25L7.35 -28.25" />
</g>
<g id="PathID_16" transform="matrix(4.5581, 0, 0, 4.5581, 850.05, 183.85)" opacity="1">
</g>
<g id="PathID_17" transform="matrix(0.555977, 0.207363, -0.207363, 0.555977, 46.4, 42.7)" opacity="1">
</g>
<g id="PathID_18" transform="matrix(0.555977, 0.207363, -0.207363, 0.555977, 46.4, 42.7)" opacity="1">
<path style="fill:none;stroke-width:9.9;stroke-linecap:round;stroke-linejoin:round;stroke-miterlimit:3;stroke:#162C61;stroke-opacity:1" d="M18.95 21L-19.05 -20.95" />
</g>
<g id="PathID_19" transform="matrix(0.241397, -6.07085e-016, 0, 0.241397, 37.6, 22.4)" opacity="1">
<path style="fill:#162C61;fill-opacity:1" d="M36 -36.1Q51 -21.1 51 0Q51 21.1 36 36Q21.1 51 0 51Q-21.1 51 -36.1 36Q-51 21.1 -51 0Q-51 -21.1 -36.1 -36.1Q-21.1 -51 0 -51Q21.1 -51 36 -36.1" />
</g>
<g id="PathID_20" transform="matrix(0.241397, -6.07085e-016, 0, 0.241397, 37.6, 22.4)" opacity="1">
</g>
<g id="PathID_21" transform="matrix(-1.34679, -1.17741e-007, 0, 1.34679, 157.5, 46.2)" opacity="1">
<path style="fill:#162C61;fill-opacity:1" d="M95.65 76.3L104.65 99.75Q105.05 100.6 104.35 101.35Q103.85 101.75 103.25 101.75L102.75 101.65L79.95 93Q67 101.75 51.25 101.75Q30.05 101.75 15.05 86.85Q0 71.95 0 50.9Q0 29.85 15.05 14.95Q30.05 0 51.25 0Q72.45 0 87.45 14.95Q102.5 29.85 102.5 50.9Q102.5 64.6 95.65 76.3M92.6 76.7Q92.3 76.05 92.7 75.4Q99.5 64.1 99.5 50.9Q99.5 31.1 85.35 17.05Q71.2 3 51.25 3Q31.3 3 17.15 17.05Q3 31.1 3 50.9Q3 70.7 17.15 84.75Q31.3 98.75 51.25 98.75Q66.6 98.75 78.9 90.1Q79.6 89.65 80.3 89.95L100.65 97.65L92.6 76.7" />
</g>
<g id="PathID_22" transform="matrix(-1.34679, -1.17741e-007, 0, 1.34679, 157.5, 46.2)" opacity="1">
<path style="fill:none;stroke-width:6.6;stroke-linecap:round;stroke-linejoin:round;stroke-miterlimit:3;stroke:#162C61;stroke-opacity:1" d="M95.6 76.25L104.6 99.7Q105 100.55 104.3 101.3Q103.8 101.7 103.2 101.7L102.7 101.65L79.9 93Q66.95 101.7 51.2 101.7Q30 101.7 15 86.8Q0 71.95 0 50.9Q0 29.85 15 14.9Q30 0 51.2 0Q72.4 0 87.4 14.9Q102.45 29.85 102.45 50.9Q102.45 64.6 95.6 76.25z" />
<path style="fill:none;stroke-width:6.6;stroke-linecap:round;stroke-linejoin:round;stroke-miterlimit:3;stroke:#162C61;stroke-opacity:1" d="M92.55 76.65Q92.25 76 92.65 75.35Q99.45 64.05 99.45 50.9Q99.45 31.05 85.3 17Q71.15 2.95 51.2 2.95Q31.25 2.95 17.1 17Q2.95 31.05 2.95 50.9Q2.95 70.65 17.1 84.7Q31.25 98.7 51.2 98.7Q66.55 98.7 78.85 90.05Q79.55 89.6 80.25 89.9L100.6 97.6L92.55 76.65z" />
</g>
<g id="PathID_23" transform="matrix(-0.158811, -1.38837e-008, 0, 0.158811, 122.1, 116.7)" opacity="1">
<path style="fill:#162C61;fill-opacity:1" d="M36 -36.1Q51 -21.1 51 0Q51 21.1 36 36Q21.1 51 0 51Q-21.1 51 -36.1 36Q-51 21.1 -51 0Q-51 -21.1 -36.1 -36.1Q-21.1 -51 0 -51Q21.1 -51 36 -36.1" />
</g>
<g id="PathID_24" transform="matrix(-0.158811, -1.38837e-008, 0, 0.158811, 122.1, 116.7)" opacity="1">
</g>
<g id="PathID_25" transform="matrix(-0.158811, -1.38837e-008, 0, 0.158811, 88.05, 116.7)" opacity="1">
<path style="fill:#162C61;fill-opacity:1" d="M36 -36.1Q51 -21.1 51 0Q51 21.1 36 36Q21.1 51 0 51Q-21.1 51 -36.1 36Q-51 21.1 -51 0Q-51 -21.1 -36.1 -36.1Q-21.1 -51 0 -51Q21.1 -51 36 -36.1" />
</g>
<g id="PathID_26" transform="matrix(-0.158811, -1.38837e-008, 0, 0.158811, 88.05, 116.7)" opacity="1">
</g>
<g id="PathID_27" transform="matrix(-0.158811, -1.38837e-008, 0, 0.158811, 55.35, 116)" opacity="1">
<path style="fill:#162C61;fill-opacity:1" d="M36 -36.1Q51 -21.1 51 0Q51 21.1 36 36Q21.1 51 0 51Q-21.1 51 -36.1 36Q-51 21.1 -51 0Q-51 -21.1 -36.1 -36.1Q-21.1 -51 0 -51Q21.1 -51 36 -36.1" />
</g>
<g id="PathID_28" transform="matrix(-0.158811, -1.38837e-008, 0, 0.158811, 55.35, 116)" opacity="1">
</g>
</svg>
