<svg xmlns="http://www.w3.org/2000/svg" width="900" height="200"><path d="M124.28 58.338l12.42-31.231" fill="none" stroke-width="5.875" stroke-linecap="round" stroke-linejoin="round" stroke-miterlimit="3" stroke="#e2ecff"/><path d="M130.61 13.736q-3.621 3.62-3.621 8.714 0 5.093 3.62 8.69 3.598 3.621 8.691 3.621 5.093 0 8.714-3.62 3.597-3.598 3.597-8.691 0-5.093-3.597-8.714-3.62-3.597-8.714-3.597-5.093 0-8.69 3.597m191.472 32.848V184.45h-16.593V149.8q0 17.325-14.64 27.574-14.397 10.004-33.43 10.004-24.401 0-39.774-15.373-15.372-15.616-15.372-45.385V46.584h15.86v79.792q0 22.693 11.225 34.649 11.224 11.713 30.989 11.713 20.74 0 32.941-13.177 12.2-13.42 12.2-40.018V46.584h16.594m59.444 14.885v83.207q0 15.129 4.88 20.01 4.88 4.88 18.057 4.88h16.592v14.884h-17.812q-19.521 0-28.794-9.272-9.028-9.273-9.028-30.502V61.47h-20.985V46.584h20.985V12.911h16.105v33.673h39.53V61.47h-39.53M508.75 44.876q19.52 0 35.137 8.785 15.616 8.54 24.4 24.645 8.785 15.86 8.785 37.09 0 21.716-8.784 37.82-8.785 15.861-24.401 24.646-15.617 8.54-35.138 8.54-19.276 0-34.893-8.54-15.373-8.54-24.401-24.645-8.784-16.105-8.784-37.822 0-21.473 8.784-37.333 9.028-16.105 24.4-24.645 15.618-8.54 34.894-8.54m0 14.64q-13.908 0-25.62 6.1-11.713 6.1-19.033 18.789-7.077 12.444-7.077 30.99 0 19.032 7.077 31.72 7.32 12.445 19.032 18.545 11.713 5.856 25.621 5.856 13.909 0 25.621-5.856 11.713-6.1 19.033-18.789 7.32-12.688 7.32-31.477 0-18.545-7.32-30.99-7.076-12.688-19.033-18.788-11.712-6.1-25.62-6.1M624.82 76.11q.487-14.885 14.152-23.425 13.665-8.785 37.09-8.785v16.837h-6.345q-19.032 0-31.965 10.736-12.933 10.493-12.933 34.65v78.327h-16.104V46.584h16.104V76.11" fill="#e2ecff"/><path d="M760.77 53.488q21.194 0 35.78 11.168 14.586 11.167 15.27 27.576V55.084h15.042V183.85H811.82v-36.92q-.684 16.409-15.27 27.576-14.586 11.167-35.78 11.167-18.005 0-32.135-7.976-13.903-7.977-21.651-23.019-7.75-15.27-7.75-35.325 0-19.828 7.75-34.87 7.748-15.041 21.65-23.018 14.13-7.977 32.135-7.977m2.28 13.675q-22.336 0-35.554 14.13-12.99 13.902-12.99 38.06 0 24.614 12.99 38.516 12.99 13.902 35.553 13.902 13.902 0 25.07-6.381 11.167-6.382 17.32-18.233 6.382-12.079 6.382-27.804 0-15.498-6.381-27.349-6.154-11.85-17.321-18.232-11.168-6.61-25.07-6.61m101.816-47.176q0-4.786 2.963-7.748 3.19-2.963 7.976-2.963 5.014 0 8.205 3.19 3.19 2.963 3.19 7.521 0 4.786-3.19 7.977-3.19 2.963-8.205 2.963-5.014 0-7.976-2.963-2.963-3.19-2.963-7.977m18.688 35.098V183.85H868.51V55.084h15.042" fill="#fff"/><path d="M52.581 58.305L40.153 27.102" fill="none" stroke-width="5.875" stroke-linecap="round" stroke-linejoin="round" stroke-miterlimit="3" stroke="#e2ecff"/><path d="M46.29 13.686q3.621 3.62 3.621 8.714 0 5.093-3.62 8.69-3.598 3.621-8.691 3.621-5.093 0-8.714-3.62-3.597-3.598-3.597-8.691 0-5.093 3.597-8.714 3.62-3.597 8.714-3.597 5.093 0 8.69 3.597" fill="#e2ecff"/><path d="M28.68 148.96l-12.122 31.582q-.538 1.145.404 2.155.674.539 1.482.539l.673-.135 30.707-11.65q17.441 11.785 38.653 11.785 28.552 0 48.754-20.067 20.269-20.067 20.269-48.417t-20.27-48.417Q117.03 46.2 88.478 46.2T39.723 66.335q-20.269 20.067-20.269 48.417 0 18.45 9.226 34.208m4.107.539q.404-.876-.134-1.751-9.159-15.219-9.159-32.996 0-26.667 19.057-45.59Q61.61 50.24 88.477 50.24q26.868 0 45.926 18.923 19.057 18.922 19.057 45.589 0 26.666-19.057 45.588-19.058 18.856-45.926 18.856-20.673 0-37.239-11.65-.942-.606-1.885-.202l-27.407 10.37 10.841-28.215" fill="#7f8fa6"/><g fill="none" stroke-width="6.6" stroke-linecap="round" stroke-linejoin="round" stroke-miterlimit="3" stroke="#e2ecff"><path d="M28.747 148.893l-12.121 31.582q-.539 1.145.404 2.155.673.539 1.481.539l.674-.068 30.706-11.65q17.441 11.718 38.653 11.718 28.552 0 48.754-20.068 20.202-20 20.202-48.35t-20.202-48.484Q117.096 46.2 88.544 46.2q-28.552 0-48.753 20.067-20.27 20.135-20.27 48.485 0 18.45 9.226 34.14z" stroke-width="8.888813999999998"/><path d="M32.855 149.431q.404-.875-.135-1.75-9.158-15.22-9.158-32.93 0-26.733 19.057-45.656 19.057-18.922 45.925-18.922 26.869 0 45.926 18.922 19.057 18.923 19.057 45.657 0 26.599-19.057 45.521-19.057 18.855-45.926 18.855-20.673 0-37.238-11.65-.943-.606-1.886-.202l-27.407 10.37 10.842-28.215z" stroke-width="8.888813999999998"/></g><path d="M116.383 110.967Q114 113.349 114 116.7q0 3.35 2.382 5.717 2.366 2.382 5.717 2.382 3.35 0 5.733-2.382 2.366-2.366 2.366-5.717 0-3.35-2.366-5.733-2.382-2.366-5.733-2.366-3.35 0-5.717 2.366m-34.049 0q-2.382 2.382-2.382 5.733 0 3.35 2.382 5.717 2.366 2.382 5.717 2.382 3.35 0 5.733-2.382 2.366-2.366 2.366-5.717 0-3.35-2.366-5.733-2.382-2.366-5.733-2.366-3.35 0-5.717 2.366m-32.7-.7Q47.25 112.649 47.25 116q0 3.35 2.382 5.717 2.366 2.382 5.717 2.382 3.35 0 5.733-2.382 2.366-2.366 2.366-5.717 0-3.35-2.366-5.733-2.382-2.366-5.733-2.366-3.35 0-5.717 2.366" fill="#e2ecff"/></svg>